<?xml version="1.0" ?><svg viewBox="0 0 64 64" xmlns="http://www.w3.org/2000/svg"><defs><style>.cls-1{fill:#f23d6c;}.cls-2{fill:#fe8657;}.cls-3{fill:#ec1d57;}.cls-4{fill:#fe4a13;}.cls-5{fill:#16244d;}</style></defs><g id="Venus"><path class="cls-1" d="M60,32A28,28,0,1,1,32,4,28,28,0,0,1,60,32Z" id="path3762-3"/><path class="cls-2" d="M25.28,4.82A28.06,28.06,0,0,0,11.42,13a8.38,8.38,0,1,0,13.86-8.2ZM44.12,6.76A13.37,13.37,0,0,0,53,30.16a13.23,13.23,0,0,0,6.77-1.87,27.73,27.73,0,0,0-2.89-9.17A4.53,4.53,0,1,1,52,12.35,28.14,28.14,0,0,0,44.12,6.76Zm-11,16.18a3.43,3.43,0,1,0,3.45,3.42A3.41,3.41,0,0,0,33.15,22.94Zm-18.86.8a2.44,2.44,0,0,0-.43,4.84A8.52,8.52,0,1,1,6.18,42.82a27.84,27.84,0,0,0,4.58,7.42,13.38,13.38,0,0,0,4-26.46A2.15,2.15,0,0,0,14.29,23.74Zm-2.24,8.94a4.62,4.62,0,0,0-4.17,3.64,4.54,4.54,0,0,0,9,1.44,4.56,4.56,0,0,0-3.94-5.08,4,4,0,0,0-.85,0Zm32.76,3.63a13.38,13.38,0,0,0-8.76,23.4,28.37,28.37,0,0,0,6.59-1.81A8.51,8.51,0,1,1,53.42,50a27.64,27.64,0,0,0,3.73-5.73,13.38,13.38,0,0,0-9.65-7.74A13,13,0,0,0,44.81,36.31Zm-.21,9.16a4.5,4.5,0,0,0-4.14,3.36,4.54,4.54,0,1,0,8.91,1.74,4.49,4.49,0,0,0-3.9-5.1,4.22,4.22,0,0,0-.87,0Zm-21,8.34a4.55,4.55,0,0,0-4.3,3.13,27.7,27.7,0,0,0,8.66,2.76,4.68,4.68,0,0,0,.2-1.34,4.55,4.55,0,0,0-4.55-4.55Z" id="path3818-7"/><path class="cls-3" d="M32,4a27.24,27.24,0,0,0-3.72.25,28,28,0,0,1,0,55.5A27.1,27.1,0,0,0,32,60,28,28,0,0,0,32,4Z" id="path3739"/><path class="cls-4" d="M44.12,6.76a13.77,13.77,0,0,0-2.52,3,28.32,28.32,0,0,1,6.92,7.71,4.39,4.39,0,0,1-.07-.72A4.54,4.54,0,0,1,52,12.35,28.14,28.14,0,0,0,44.12,6.76ZM56.86,19.12a4.51,4.51,0,0,1-7,1,27.93,27.93,0,0,1,2.59,10c.16,0,.32,0,.48,0a13.23,13.23,0,0,0,6.77-1.87A27.73,27.73,0,0,0,56.86,19.12Zm-5,19.15a28.21,28.21,0,0,1-1.58,4.81,8.46,8.46,0,0,1,3.14,7,27.64,27.64,0,0,0,3.73-5.73A13.45,13.45,0,0,0,51.86,38.27Zm-3.62,8.67a28.08,28.08,0,0,1-5.76,6.58,4.59,4.59,0,0,0,1.56.64,4.54,4.54,0,0,0,5.33-3.59A4.19,4.19,0,0,0,48.24,46.94Zm-9.13,9a28.07,28.07,0,0,1-4.54,2.22,15.59,15.59,0,0,0,1.48,1.56,28.37,28.37,0,0,0,6.59-1.81A8.46,8.46,0,0,1,39.11,55.93Z" id="path3755"/><path class="cls-5" d="M61,32A29,29,0,1,0,32,61,29,29,0,0,0,61,32ZM39.93,57.81a27.08,27.08,0,0,1-3.53.83A12.36,12.36,0,1,1,56,44.3a28.65,28.65,0,0,1-1.87,3.1A9.52,9.52,0,1,0,39.93,57.81ZM44.31,8a29.55,29.55,0,0,1,2.56,1.5A9.51,9.51,0,0,0,53,26.28a9.53,9.53,0,0,0,5-1.45,28.22,28.22,0,0,1,.63,2.9A12.34,12.34,0,0,1,44.31,8Zm5.83,4A5.54,5.54,0,0,0,53,22.31h0a5.56,5.56,0,0,0,3.63-1.38c.28.63.55,1.27.78,1.92A7.51,7.51,0,0,1,48.56,10.7C49.11,11.12,49.64,11.56,50.14,12Zm5.54,7A3.55,3.55,0,0,1,53,20.31h0a3.54,3.54,0,0,1-1.35-6.81A27,27,0,0,1,55.68,19.05ZM25,5.94a7.37,7.37,0,0,1-5.43,12.37h0a7.4,7.4,0,0,1-7-5A26.93,26.93,0,0,1,25,5.94ZM14,27.6a1.44,1.44,0,0,1,.25-2.86l.25,0a12.38,12.38,0,0,1-3.27,24.52,28.72,28.72,0,0,1-2.48-3.5A9.51,9.51,0,1,0,14,27.6ZM27.12,58.55a27.12,27.12,0,0,1-6.52-2.08,3.55,3.55,0,0,1,3-1.66h0a3.55,3.55,0,0,1,3.54,3.55C27.13,58.42,27.12,58.49,27.12,58.55Zm2,.29a3.88,3.88,0,0,0,0-.48,5.55,5.55,0,0,0-5.56-5.55h0a5.54,5.54,0,0,0-4.74,2.74,27.07,27.07,0,0,1-5.67-4.24A14.38,14.38,0,0,0,14.89,22.8a2.53,2.53,0,0,0-.61-.06,3.46,3.46,0,0,0-3.38,2.84,3.43,3.43,0,0,0,2.79,4,7.49,7.49,0,0,1,6.08,8.72,7.44,7.44,0,0,1-8.72,6.09,7.55,7.55,0,0,1-4-2.13A26.94,26.94,0,0,1,11.07,15a9.42,9.42,0,0,0,8.46,5.34h0a9.39,9.39,0,0,0,9.38-9.38,9.24,9.24,0,0,0-1.77-5.48A26.76,26.76,0,0,1,42.38,7.08,14.36,14.36,0,0,0,58.91,29.86c.05.7.09,1.42.09,2.14a26.83,26.83,0,0,1-1.94,10A14.36,14.36,0,1,0,33.92,58.92c-.64,0-1.27.08-1.92.08A28.07,28.07,0,0,1,29.09,58.84Zm17.8-6.2a3.5,3.5,0,0,1-2.65.54A3.54,3.54,0,0,1,41.45,49a3.64,3.64,0,0,1,3.93-2.55,3.51,3.51,0,0,1,2.38,1.41,3.15,3.15,0,0,1,.63,2.5A3.5,3.5,0,0,1,46.89,52.64Zm2.91-.36a5.94,5.94,0,0,0,.56-1.51,5.23,5.23,0,0,0-1-4.09,5.5,5.5,0,0,0-3.8-2.2,5.63,5.63,0,0,0-6.08,4.16,5.56,5.56,0,0,0,4.37,6.5,5.64,5.64,0,0,0,1.08.1,5.86,5.86,0,0,0,.94-.08,26.47,26.47,0,0,1-3.27,1.67,7.5,7.5,0,1,1,9.82-7.2A27.31,27.31,0,0,1,49.8,52.28Z"/><path class="cls-5" d="M6.89,36.15a5.56,5.56,0,0,0,5.49,6.36,5.56,5.56,0,0,0,5.45-4.58,5.19,5.19,0,0,0-1.06-4A5.55,5.55,0,0,0,13,31.68,5.71,5.71,0,0,0,6.89,36.15Zm2,.35a3.69,3.69,0,0,1,4-2.83,3.56,3.56,0,0,1,2.37,1.42,3.19,3.19,0,0,1,.68,2.5,3.54,3.54,0,0,1-4.11,2.86A3.5,3.5,0,0,1,8.86,36.5Z"/><path class="cls-5" d="M37.6,26.36a4.42,4.42,0,0,0-4.42-4.42h0a4.43,4.43,0,1,0,4.45,4.42Zm-6.86,0h0a2.4,2.4,0,0,1,2.42-2.42h0a2.44,2.44,0,0,1,1.71.7,2.43,2.43,0,1,1-4.15,1.72Z"/></g></svg>